%TF.GenerationSoftware,KiCad,Pcbnew,8.0.3*%
%TF.CreationDate,2025-04-18T12:15:05-03:00*%
%TF.ProjectId,mini,6d696e69-2e6b-4696-9361-645f70636258,rev?*%
%TF.SameCoordinates,Original*%
%TF.FileFunction,Legend,Bot*%
%TF.FilePolarity,Positive*%
%FSLAX46Y46*%
G04 Gerber Fmt 4.6, Leading zero omitted, Abs format (unit mm)*
G04 Created by KiCad (PCBNEW 8.0.3) date 2025-04-18 12:15:05*
%MOMM*%
%LPD*%
G01*
G04 APERTURE LIST*
%ADD10C,0.150000*%
%ADD11C,0.254000*%
%ADD12C,0.127000*%
G04 APERTURE END LIST*
D10*
X177144523Y-72052319D02*
X177144523Y-72766604D01*
X177144523Y-72766604D02*
X177192142Y-72909461D01*
X177192142Y-72909461D02*
X177287380Y-73004700D01*
X177287380Y-73004700D02*
X177430237Y-73052319D01*
X177430237Y-73052319D02*
X177525475Y-73052319D01*
X176144523Y-73052319D02*
X176715951Y-73052319D01*
X176430237Y-73052319D02*
X176430237Y-72052319D01*
X176430237Y-72052319D02*
X176525475Y-72195176D01*
X176525475Y-72195176D02*
X176620713Y-72290414D01*
X176620713Y-72290414D02*
X176715951Y-72338033D01*
X175811189Y-72052319D02*
X175192142Y-72052319D01*
X175192142Y-72052319D02*
X175525475Y-72433271D01*
X175525475Y-72433271D02*
X175382618Y-72433271D01*
X175382618Y-72433271D02*
X175287380Y-72480890D01*
X175287380Y-72480890D02*
X175239761Y-72528509D01*
X175239761Y-72528509D02*
X175192142Y-72623747D01*
X175192142Y-72623747D02*
X175192142Y-72861842D01*
X175192142Y-72861842D02*
X175239761Y-72957080D01*
X175239761Y-72957080D02*
X175287380Y-73004700D01*
X175287380Y-73004700D02*
X175382618Y-73052319D01*
X175382618Y-73052319D02*
X175668332Y-73052319D01*
X175668332Y-73052319D02*
X175763570Y-73004700D01*
X175763570Y-73004700D02*
X175811189Y-72957080D01*
D11*
%TO.C,hole_3mm*%
X143980000Y-68680000D02*
X149980000Y-68680000D01*
X146980000Y-65680000D02*
X146980000Y-71680000D01*
X149980000Y-68680000D02*
G75*
G02*
X143980000Y-68680000I-3000000J0D01*
G01*
X143980000Y-68680000D02*
G75*
G02*
X149980000Y-68680000I3000000J0D01*
G01*
X125200000Y-35200000D02*
X131200000Y-35200000D01*
X128200000Y-32200000D02*
X128200000Y-38200000D01*
X131200000Y-35200000D02*
G75*
G02*
X125200000Y-35200000I-3000000J0D01*
G01*
X125200000Y-35200000D02*
G75*
G02*
X131200000Y-35200000I3000000J0D01*
G01*
X175200000Y-35600000D02*
X181200000Y-35600000D01*
X178200000Y-32600000D02*
X178200000Y-38600000D01*
X181200000Y-35600000D02*
G75*
G02*
X175200000Y-35600000I-3000000J0D01*
G01*
X175200000Y-35600000D02*
G75*
G02*
X181200000Y-35600000I3000000J0D01*
G01*
D12*
%TO.C,J13*%
X166510000Y-57060000D02*
X168210000Y-57060000D01*
X166510000Y-59560000D02*
X166510000Y-57060000D01*
X168210000Y-55360000D02*
X178110000Y-55360000D01*
X168210000Y-57060000D02*
X168210000Y-55360000D01*
X168210000Y-59560000D02*
X166510000Y-59560000D01*
X168210000Y-64360000D02*
X168210000Y-59560000D01*
X170160000Y-70560000D02*
X171160000Y-70560000D01*
X175160000Y-70560000D02*
X176160000Y-70560000D01*
X175660000Y-70060000D02*
X175660000Y-71060000D01*
X178110000Y-55360000D02*
X178110000Y-57060000D01*
X178110000Y-57060000D02*
X179810000Y-57060000D01*
X178110000Y-59560000D02*
X178110000Y-64360000D01*
X178110000Y-64360000D02*
X168210000Y-64360000D01*
X179810000Y-57060000D02*
X179810000Y-59560000D01*
X179810000Y-59560000D02*
X178110000Y-59560000D01*
%TD*%
M02*
