M48
; DRILL file {KiCad 8.0.3} date 2025-04-18T12:15:08-0300
; FORMAT={-:-/ absolute / inch / decimal}
; #@! TF.CreationDate,2025-04-18T12:15:08-03:00
; #@! TF.GenerationSoftware,Kicad,Pcbnew,8.0.3
; #@! TF.FileFunction,Plated,1,2,PTH
FMAT,2
INCH
; #@! TA.AperFunction,Plated,PTH,ComponentDrill
T1C0.0079
; #@! TA.AperFunction,Plated,PTH,ViaDrill
T2C0.0118
; #@! TA.AperFunction,Plated,PTH,ComponentDrill
T3C0.0236
; #@! TA.AperFunction,Plated,PTH,ViaDrill
T4C0.0276
; #@! TA.AperFunction,Plated,PTH,ComponentDrill
T5C0.0295
; #@! TA.AperFunction,Plated,PTH,ComponentDrill
T6C0.0394
; #@! TA.AperFunction,Plated,PTH,ComponentDrill
T7C0.0472
; #@! TA.AperFunction,Plated,PTH,ComponentDrill
T8C0.0669
; #@! TA.AperFunction,Plated,PTH,ComponentDrill
T9C0.1181
%
G90
G05
T1
X5.6285Y-1.378
X5.6285Y-1.978
X5.7285Y-1.378
X5.7285Y-1.978
X5.8285Y-1.378
X5.8285Y-1.978
X5.9285Y-1.378
X5.9285Y-1.978
X6.0285Y-1.378
X6.0285Y-1.978
X6.1285Y-1.378
X6.1285Y-1.978
X6.2285Y-1.378
X6.2285Y-1.978
X6.3285Y-1.378
X6.3285Y-1.978
T2
X5.4791Y-1.7579
X5.5443Y-1.378
X5.8285Y-1.4488
X5.837Y-1.5685
X5.9285Y-1.4488
X6.0285Y-1.4488
X6.0285Y-1.9134
X6.1285Y-1.4488
X6.2205Y-1.5685
X6.2285Y-1.4488
X6.3285Y-1.877
X6.4016Y-1.378
X6.5846Y-2.0874
X6.602Y-1.5685
T3
X5.4285Y-2.1657
X5.4285Y-2.4657
X5.5285Y-2.1657
X5.5285Y-2.4657
X5.6285Y-2.1657
X5.6285Y-2.4657
X5.7285Y-2.1657
X5.7285Y-2.4657
X5.8437Y-2.1657
X5.8437Y-2.4657
X5.9437Y-2.1657
X5.9437Y-2.4657
X6.0437Y-2.1657
X6.0437Y-2.4657
X6.1437Y-2.1657
X6.1437Y-2.4657
T4
X6.3285Y-1.7568
T5
X5.1839Y-1.5669
X5.2626Y-1.5669
X5.3413Y-1.5669
X5.378Y-1.8031
X5.378Y-1.8819
X5.378Y-1.9606
X5.5667Y-1.5689
X5.6455Y-1.5689
X5.7242Y-1.5689
X5.9496Y-1.5689
X5.9498Y-1.8169
X6.0283Y-1.5689
X6.0285Y-1.8169
X6.1071Y-1.5689
X6.1073Y-1.8169
X6.3325Y-1.5689
X6.4112Y-1.5689
X6.49Y-1.5689
X6.5846Y-1.7953
X6.5846Y-1.874
X6.5846Y-1.9528
X6.7154Y-1.5689
X6.7941Y-1.5689
X6.8728Y-1.5689
T6
X6.6008Y-2.2957
X7.0339Y-2.2957
T7
X5.5281Y-2.6819
X5.6281Y-2.6819
X5.9437Y-2.6821
X6.0437Y-2.6821
X6.8205Y-1.9624
X6.8205Y-2.0624
T8
X6.7189Y-2.6894
X6.9157Y-2.6894
T9
X5.0472Y-1.3858
X5.7866Y-2.7039
X7.0157Y-1.4016
M30
