%TF.GenerationSoftware,KiCad,Pcbnew,8.0.3*%
%TF.CreationDate,2025-04-18T12:15:05-03:00*%
%TF.ProjectId,mini,6d696e69-2e6b-4696-9361-645f70636258,rev?*%
%TF.SameCoordinates,Original*%
%TF.FileFunction,Legend,Top*%
%TF.FilePolarity,Positive*%
%FSLAX46Y46*%
G04 Gerber Fmt 4.6, Leading zero omitted, Abs format (unit mm)*
G04 Created by KiCad (PCBNEW 8.0.3) date 2025-04-18 12:15:05*
%MOMM*%
%LPD*%
G01*
G04 APERTURE LIST*
%ADD10C,0.150000*%
%ADD11C,0.300000*%
%ADD12C,0.060960*%
%ADD13C,0.120000*%
%ADD14C,0.099060*%
%ADD15C,0.254000*%
%ADD16C,0.127000*%
%ADD17C,0.152400*%
%ADD18C,3.000000*%
G04 APERTURE END LIST*
D10*
X168474819Y-51924523D02*
X169189104Y-51924523D01*
X169189104Y-51924523D02*
X169331961Y-51972142D01*
X169331961Y-51972142D02*
X169427200Y-52067380D01*
X169427200Y-52067380D02*
X169474819Y-52210237D01*
X169474819Y-52210237D02*
X169474819Y-52305475D01*
X169474819Y-50924523D02*
X169474819Y-51495951D01*
X169474819Y-51210237D02*
X168474819Y-51210237D01*
X168474819Y-51210237D02*
X168617676Y-51305475D01*
X168617676Y-51305475D02*
X168712914Y-51400713D01*
X168712914Y-51400713D02*
X168760533Y-51495951D01*
X168570057Y-50543570D02*
X168522438Y-50495951D01*
X168522438Y-50495951D02*
X168474819Y-50400713D01*
X168474819Y-50400713D02*
X168474819Y-50162618D01*
X168474819Y-50162618D02*
X168522438Y-50067380D01*
X168522438Y-50067380D02*
X168570057Y-50019761D01*
X168570057Y-50019761D02*
X168665295Y-49972142D01*
X168665295Y-49972142D02*
X168760533Y-49972142D01*
X168760533Y-49972142D02*
X168903390Y-50019761D01*
X168903390Y-50019761D02*
X169474819Y-50591189D01*
X169474819Y-50591189D02*
X169474819Y-49972142D01*
X161990595Y-71289819D02*
X161990595Y-72099342D01*
X161990595Y-72099342D02*
X162038214Y-72194580D01*
X162038214Y-72194580D02*
X162085833Y-72242200D01*
X162085833Y-72242200D02*
X162181071Y-72289819D01*
X162181071Y-72289819D02*
X162371547Y-72289819D01*
X162371547Y-72289819D02*
X162466785Y-72242200D01*
X162466785Y-72242200D02*
X162514404Y-72194580D01*
X162514404Y-72194580D02*
X162562023Y-72099342D01*
X162562023Y-72099342D02*
X162562023Y-71289819D01*
X163562023Y-72289819D02*
X162990595Y-72289819D01*
X163276309Y-72289819D02*
X163276309Y-71289819D01*
X163276309Y-71289819D02*
X163181071Y-71432676D01*
X163181071Y-71432676D02*
X163085833Y-71527914D01*
X163085833Y-71527914D02*
X162990595Y-71575533D01*
X122159580Y-57566666D02*
X122207200Y-57614285D01*
X122207200Y-57614285D02*
X122254819Y-57757142D01*
X122254819Y-57757142D02*
X122254819Y-57852380D01*
X122254819Y-57852380D02*
X122207200Y-57995237D01*
X122207200Y-57995237D02*
X122111961Y-58090475D01*
X122111961Y-58090475D02*
X122016723Y-58138094D01*
X122016723Y-58138094D02*
X121826247Y-58185713D01*
X121826247Y-58185713D02*
X121683390Y-58185713D01*
X121683390Y-58185713D02*
X121492914Y-58138094D01*
X121492914Y-58138094D02*
X121397676Y-58090475D01*
X121397676Y-58090475D02*
X121302438Y-57995237D01*
X121302438Y-57995237D02*
X121254819Y-57852380D01*
X121254819Y-57852380D02*
X121254819Y-57757142D01*
X121254819Y-57757142D02*
X121302438Y-57614285D01*
X121302438Y-57614285D02*
X121350057Y-57566666D01*
X121254819Y-57233332D02*
X121254819Y-56614285D01*
X121254819Y-56614285D02*
X121635771Y-56947618D01*
X121635771Y-56947618D02*
X121635771Y-56804761D01*
X121635771Y-56804761D02*
X121683390Y-56709523D01*
X121683390Y-56709523D02*
X121731009Y-56661904D01*
X121731009Y-56661904D02*
X121826247Y-56614285D01*
X121826247Y-56614285D02*
X122064342Y-56614285D01*
X122064342Y-56614285D02*
X122159580Y-56661904D01*
X122159580Y-56661904D02*
X122207200Y-56709523D01*
X122207200Y-56709523D02*
X122254819Y-56804761D01*
X122254819Y-56804761D02*
X122254819Y-57090475D01*
X122254819Y-57090475D02*
X122207200Y-57185713D01*
X122207200Y-57185713D02*
X122159580Y-57233332D01*
X152786666Y-36404819D02*
X152786666Y-37119104D01*
X152786666Y-37119104D02*
X152739047Y-37261961D01*
X152739047Y-37261961D02*
X152643809Y-37357200D01*
X152643809Y-37357200D02*
X152500952Y-37404819D01*
X152500952Y-37404819D02*
X152405714Y-37404819D01*
X153691428Y-36738152D02*
X153691428Y-37404819D01*
X153453333Y-36357200D02*
X153215238Y-37071485D01*
X153215238Y-37071485D02*
X153834285Y-37071485D01*
D11*
X141928298Y-45449999D02*
X141214012Y-45949999D01*
X141928298Y-46307142D02*
X140428298Y-46307142D01*
X140428298Y-46307142D02*
X140428298Y-45735713D01*
X140428298Y-45735713D02*
X140499727Y-45592856D01*
X140499727Y-45592856D02*
X140571155Y-45521427D01*
X140571155Y-45521427D02*
X140714012Y-45449999D01*
X140714012Y-45449999D02*
X140928298Y-45449999D01*
X140928298Y-45449999D02*
X141071155Y-45521427D01*
X141071155Y-45521427D02*
X141142584Y-45592856D01*
X141142584Y-45592856D02*
X141214012Y-45735713D01*
X141214012Y-45735713D02*
X141214012Y-46307142D01*
X140428298Y-44949999D02*
X140428298Y-44021427D01*
X140428298Y-44021427D02*
X140999727Y-44521427D01*
X140999727Y-44521427D02*
X140999727Y-44307142D01*
X140999727Y-44307142D02*
X141071155Y-44164285D01*
X141071155Y-44164285D02*
X141142584Y-44092856D01*
X141142584Y-44092856D02*
X141285441Y-44021427D01*
X141285441Y-44021427D02*
X141642584Y-44021427D01*
X141642584Y-44021427D02*
X141785441Y-44092856D01*
X141785441Y-44092856D02*
X141856870Y-44164285D01*
X141856870Y-44164285D02*
X141928298Y-44307142D01*
X141928298Y-44307142D02*
X141928298Y-44735713D01*
X141928298Y-44735713D02*
X141856870Y-44878570D01*
X141856870Y-44878570D02*
X141785441Y-44949999D01*
D10*
X138954819Y-48133333D02*
X139669104Y-48133333D01*
X139669104Y-48133333D02*
X139811961Y-48180952D01*
X139811961Y-48180952D02*
X139907200Y-48276190D01*
X139907200Y-48276190D02*
X139954819Y-48419047D01*
X139954819Y-48419047D02*
X139954819Y-48514285D01*
X139050057Y-47704761D02*
X139002438Y-47657142D01*
X139002438Y-47657142D02*
X138954819Y-47561904D01*
X138954819Y-47561904D02*
X138954819Y-47323809D01*
X138954819Y-47323809D02*
X139002438Y-47228571D01*
X139002438Y-47228571D02*
X139050057Y-47180952D01*
X139050057Y-47180952D02*
X139145295Y-47133333D01*
X139145295Y-47133333D02*
X139240533Y-47133333D01*
X139240533Y-47133333D02*
X139383390Y-47180952D01*
X139383390Y-47180952D02*
X139954819Y-47752380D01*
X139954819Y-47752380D02*
X139954819Y-47133333D01*
X151430476Y-63361069D02*
X151430476Y-64075354D01*
X151430476Y-64075354D02*
X151382857Y-64218211D01*
X151382857Y-64218211D02*
X151287619Y-64313450D01*
X151287619Y-64313450D02*
X151144762Y-64361069D01*
X151144762Y-64361069D02*
X151049524Y-64361069D01*
X152430476Y-64361069D02*
X151859048Y-64361069D01*
X152144762Y-64361069D02*
X152144762Y-63361069D01*
X152144762Y-63361069D02*
X152049524Y-63503926D01*
X152049524Y-63503926D02*
X151954286Y-63599164D01*
X151954286Y-63599164D02*
X151859048Y-63646783D01*
X153049524Y-63361069D02*
X153144762Y-63361069D01*
X153144762Y-63361069D02*
X153240000Y-63408688D01*
X153240000Y-63408688D02*
X153287619Y-63456307D01*
X153287619Y-63456307D02*
X153335238Y-63551545D01*
X153335238Y-63551545D02*
X153382857Y-63742021D01*
X153382857Y-63742021D02*
X153382857Y-63980116D01*
X153382857Y-63980116D02*
X153335238Y-64170592D01*
X153335238Y-64170592D02*
X153287619Y-64265830D01*
X153287619Y-64265830D02*
X153240000Y-64313450D01*
X153240000Y-64313450D02*
X153144762Y-64361069D01*
X153144762Y-64361069D02*
X153049524Y-64361069D01*
X153049524Y-64361069D02*
X152954286Y-64313450D01*
X152954286Y-64313450D02*
X152906667Y-64265830D01*
X152906667Y-64265830D02*
X152859048Y-64170592D01*
X152859048Y-64170592D02*
X152811429Y-63980116D01*
X152811429Y-63980116D02*
X152811429Y-63742021D01*
X152811429Y-63742021D02*
X152859048Y-63551545D01*
X152859048Y-63551545D02*
X152906667Y-63456307D01*
X152906667Y-63456307D02*
X152954286Y-63408688D01*
X152954286Y-63408688D02*
X153049524Y-63361069D01*
X162511666Y-36404819D02*
X162511666Y-37119104D01*
X162511666Y-37119104D02*
X162464047Y-37261961D01*
X162464047Y-37261961D02*
X162368809Y-37357200D01*
X162368809Y-37357200D02*
X162225952Y-37404819D01*
X162225952Y-37404819D02*
X162130714Y-37404819D01*
X163416428Y-36404819D02*
X163225952Y-36404819D01*
X163225952Y-36404819D02*
X163130714Y-36452438D01*
X163130714Y-36452438D02*
X163083095Y-36500057D01*
X163083095Y-36500057D02*
X162987857Y-36642914D01*
X162987857Y-36642914D02*
X162940238Y-36833390D01*
X162940238Y-36833390D02*
X162940238Y-37214342D01*
X162940238Y-37214342D02*
X162987857Y-37309580D01*
X162987857Y-37309580D02*
X163035476Y-37357200D01*
X163035476Y-37357200D02*
X163130714Y-37404819D01*
X163130714Y-37404819D02*
X163321190Y-37404819D01*
X163321190Y-37404819D02*
X163416428Y-37357200D01*
X163416428Y-37357200D02*
X163464047Y-37309580D01*
X163464047Y-37309580D02*
X163511666Y-37214342D01*
X163511666Y-37214342D02*
X163511666Y-36976247D01*
X163511666Y-36976247D02*
X163464047Y-36881009D01*
X163464047Y-36881009D02*
X163416428Y-36833390D01*
X163416428Y-36833390D02*
X163321190Y-36785771D01*
X163321190Y-36785771D02*
X163130714Y-36785771D01*
X163130714Y-36785771D02*
X163035476Y-36833390D01*
X163035476Y-36833390D02*
X162987857Y-36881009D01*
X162987857Y-36881009D02*
X162940238Y-36976247D01*
X163952319Y-37666904D02*
X164761842Y-37666904D01*
X164761842Y-37666904D02*
X164857080Y-37619285D01*
X164857080Y-37619285D02*
X164904700Y-37571666D01*
X164904700Y-37571666D02*
X164952319Y-37476428D01*
X164952319Y-37476428D02*
X164952319Y-37285952D01*
X164952319Y-37285952D02*
X164904700Y-37190714D01*
X164904700Y-37190714D02*
X164857080Y-37143095D01*
X164857080Y-37143095D02*
X164761842Y-37095476D01*
X164761842Y-37095476D02*
X163952319Y-37095476D01*
X163952319Y-36714523D02*
X163952319Y-36095476D01*
X163952319Y-36095476D02*
X164333271Y-36428809D01*
X164333271Y-36428809D02*
X164333271Y-36285952D01*
X164333271Y-36285952D02*
X164380890Y-36190714D01*
X164380890Y-36190714D02*
X164428509Y-36143095D01*
X164428509Y-36143095D02*
X164523747Y-36095476D01*
X164523747Y-36095476D02*
X164761842Y-36095476D01*
X164761842Y-36095476D02*
X164857080Y-36143095D01*
X164857080Y-36143095D02*
X164904700Y-36190714D01*
X164904700Y-36190714D02*
X164952319Y-36285952D01*
X164952319Y-36285952D02*
X164952319Y-36571666D01*
X164952319Y-36571666D02*
X164904700Y-36666904D01*
X164904700Y-36666904D02*
X164857080Y-36714523D01*
X154766666Y-47254819D02*
X154766666Y-47969104D01*
X154766666Y-47969104D02*
X154719047Y-48111961D01*
X154719047Y-48111961D02*
X154623809Y-48207200D01*
X154623809Y-48207200D02*
X154480952Y-48254819D01*
X154480952Y-48254819D02*
X154385714Y-48254819D01*
X155719047Y-47254819D02*
X155242857Y-47254819D01*
X155242857Y-47254819D02*
X155195238Y-47731009D01*
X155195238Y-47731009D02*
X155242857Y-47683390D01*
X155242857Y-47683390D02*
X155338095Y-47635771D01*
X155338095Y-47635771D02*
X155576190Y-47635771D01*
X155576190Y-47635771D02*
X155671428Y-47683390D01*
X155671428Y-47683390D02*
X155719047Y-47731009D01*
X155719047Y-47731009D02*
X155766666Y-47826247D01*
X155766666Y-47826247D02*
X155766666Y-48064342D01*
X155766666Y-48064342D02*
X155719047Y-48159580D01*
X155719047Y-48159580D02*
X155671428Y-48207200D01*
X155671428Y-48207200D02*
X155576190Y-48254819D01*
X155576190Y-48254819D02*
X155338095Y-48254819D01*
X155338095Y-48254819D02*
X155242857Y-48207200D01*
X155242857Y-48207200D02*
X155195238Y-48159580D01*
D11*
X148678358Y-45449999D02*
X147964072Y-45949999D01*
X148678358Y-46307142D02*
X147178358Y-46307142D01*
X147178358Y-46307142D02*
X147178358Y-45735713D01*
X147178358Y-45735713D02*
X147249787Y-45592856D01*
X147249787Y-45592856D02*
X147321215Y-45521427D01*
X147321215Y-45521427D02*
X147464072Y-45449999D01*
X147464072Y-45449999D02*
X147678358Y-45449999D01*
X147678358Y-45449999D02*
X147821215Y-45521427D01*
X147821215Y-45521427D02*
X147892644Y-45592856D01*
X147892644Y-45592856D02*
X147964072Y-45735713D01*
X147964072Y-45735713D02*
X147964072Y-46307142D01*
X147321215Y-44878570D02*
X147249787Y-44807142D01*
X147249787Y-44807142D02*
X147178358Y-44664285D01*
X147178358Y-44664285D02*
X147178358Y-44307142D01*
X147178358Y-44307142D02*
X147249787Y-44164285D01*
X147249787Y-44164285D02*
X147321215Y-44092856D01*
X147321215Y-44092856D02*
X147464072Y-44021427D01*
X147464072Y-44021427D02*
X147606930Y-44021427D01*
X147606930Y-44021427D02*
X147821215Y-44092856D01*
X147821215Y-44092856D02*
X148678358Y-44949999D01*
X148678358Y-44949999D02*
X148678358Y-44021427D01*
X130998328Y-45177499D02*
X130284042Y-45677499D01*
X130998328Y-46034642D02*
X129498328Y-46034642D01*
X129498328Y-46034642D02*
X129498328Y-45463213D01*
X129498328Y-45463213D02*
X129569757Y-45320356D01*
X129569757Y-45320356D02*
X129641185Y-45248927D01*
X129641185Y-45248927D02*
X129784042Y-45177499D01*
X129784042Y-45177499D02*
X129998328Y-45177499D01*
X129998328Y-45177499D02*
X130141185Y-45248927D01*
X130141185Y-45248927D02*
X130212614Y-45320356D01*
X130212614Y-45320356D02*
X130284042Y-45463213D01*
X130284042Y-45463213D02*
X130284042Y-46034642D01*
X130998328Y-43748927D02*
X130998328Y-44606070D01*
X130998328Y-44177499D02*
X129498328Y-44177499D01*
X129498328Y-44177499D02*
X129712614Y-44320356D01*
X129712614Y-44320356D02*
X129855471Y-44463213D01*
X129855471Y-44463213D02*
X129926900Y-44606070D01*
D12*
X159816941Y-57679953D02*
X159831214Y-57694225D01*
X159831214Y-57694225D02*
X159845486Y-57737043D01*
X159845486Y-57737043D02*
X159845486Y-57765587D01*
X159845486Y-57765587D02*
X159831214Y-57808404D01*
X159831214Y-57808404D02*
X159802669Y-57836949D01*
X159802669Y-57836949D02*
X159774124Y-57851222D01*
X159774124Y-57851222D02*
X159717034Y-57865494D01*
X159717034Y-57865494D02*
X159674217Y-57865494D01*
X159674217Y-57865494D02*
X159617128Y-57851222D01*
X159617128Y-57851222D02*
X159588583Y-57836949D01*
X159588583Y-57836949D02*
X159560038Y-57808404D01*
X159560038Y-57808404D02*
X159545766Y-57765587D01*
X159545766Y-57765587D02*
X159545766Y-57737043D01*
X159545766Y-57737043D02*
X159560038Y-57694225D01*
X159560038Y-57694225D02*
X159574311Y-57679953D01*
X159645673Y-57423050D02*
X159845486Y-57423050D01*
X159531494Y-57494412D02*
X159745579Y-57565774D01*
X159745579Y-57565774D02*
X159745579Y-57380233D01*
D10*
X138724065Y-68308925D02*
X139361486Y-68308925D01*
X139361486Y-68308925D02*
X139436476Y-68271430D01*
X139436476Y-68271430D02*
X139473972Y-68233934D01*
X139473972Y-68233934D02*
X139511467Y-68158944D01*
X139511467Y-68158944D02*
X139511467Y-68008962D01*
X139511467Y-68008962D02*
X139473972Y-67933972D01*
X139473972Y-67933972D02*
X139436476Y-67896476D01*
X139436476Y-67896476D02*
X139361486Y-67858981D01*
X139361486Y-67858981D02*
X138724065Y-67858981D01*
X138986532Y-67146570D02*
X139511467Y-67146570D01*
X138686570Y-67334047D02*
X139249000Y-67521523D01*
X139249000Y-67521523D02*
X139249000Y-67034084D01*
X119177857Y-62700999D02*
X119177857Y-61946714D01*
X120497857Y-62323856D02*
X119177857Y-62323856D01*
X120120714Y-61569571D02*
X120120714Y-60941000D01*
X120497857Y-61695285D02*
X119177857Y-61255285D01*
X119177857Y-61255285D02*
X120497857Y-60815285D01*
X119177857Y-59809571D02*
X119177857Y-60060999D01*
X119177857Y-60060999D02*
X119240714Y-60186713D01*
X119240714Y-60186713D02*
X119303571Y-60249571D01*
X119303571Y-60249571D02*
X119492142Y-60375285D01*
X119492142Y-60375285D02*
X119743571Y-60438142D01*
X119743571Y-60438142D02*
X120246428Y-60438142D01*
X120246428Y-60438142D02*
X120372142Y-60375285D01*
X120372142Y-60375285D02*
X120435000Y-60312428D01*
X120435000Y-60312428D02*
X120497857Y-60186713D01*
X120497857Y-60186713D02*
X120497857Y-59935285D01*
X120497857Y-59935285D02*
X120435000Y-59809571D01*
X120435000Y-59809571D02*
X120372142Y-59746713D01*
X120372142Y-59746713D02*
X120246428Y-59683856D01*
X120246428Y-59683856D02*
X119932142Y-59683856D01*
X119932142Y-59683856D02*
X119806428Y-59746713D01*
X119806428Y-59746713D02*
X119743571Y-59809571D01*
X119743571Y-59809571D02*
X119680714Y-59935285D01*
X119680714Y-59935285D02*
X119680714Y-60186713D01*
X119680714Y-60186713D02*
X119743571Y-60312428D01*
X119743571Y-60312428D02*
X119806428Y-60375285D01*
X119806428Y-60375285D02*
X119932142Y-60438142D01*
X119177857Y-58489570D02*
X119177857Y-59118142D01*
X119177857Y-59118142D02*
X119806428Y-59180999D01*
X119806428Y-59180999D02*
X119743571Y-59118142D01*
X119743571Y-59118142D02*
X119680714Y-58992428D01*
X119680714Y-58992428D02*
X119680714Y-58678142D01*
X119680714Y-58678142D02*
X119743571Y-58552428D01*
X119743571Y-58552428D02*
X119806428Y-58489570D01*
X119806428Y-58489570D02*
X119932142Y-58426713D01*
X119932142Y-58426713D02*
X120246428Y-58426713D01*
X120246428Y-58426713D02*
X120372142Y-58489570D01*
X120372142Y-58489570D02*
X120435000Y-58552428D01*
X120435000Y-58552428D02*
X120497857Y-58678142D01*
X120497857Y-58678142D02*
X120497857Y-58992428D01*
X120497857Y-58992428D02*
X120435000Y-59118142D01*
X120435000Y-59118142D02*
X120372142Y-59180999D01*
X119743571Y-57672427D02*
X119680714Y-57798142D01*
X119680714Y-57798142D02*
X119617857Y-57860999D01*
X119617857Y-57860999D02*
X119492142Y-57923856D01*
X119492142Y-57923856D02*
X119429285Y-57923856D01*
X119429285Y-57923856D02*
X119303571Y-57860999D01*
X119303571Y-57860999D02*
X119240714Y-57798142D01*
X119240714Y-57798142D02*
X119177857Y-57672427D01*
X119177857Y-57672427D02*
X119177857Y-57420999D01*
X119177857Y-57420999D02*
X119240714Y-57295285D01*
X119240714Y-57295285D02*
X119303571Y-57232427D01*
X119303571Y-57232427D02*
X119429285Y-57169570D01*
X119429285Y-57169570D02*
X119492142Y-57169570D01*
X119492142Y-57169570D02*
X119617857Y-57232427D01*
X119617857Y-57232427D02*
X119680714Y-57295285D01*
X119680714Y-57295285D02*
X119743571Y-57420999D01*
X119743571Y-57420999D02*
X119743571Y-57672427D01*
X119743571Y-57672427D02*
X119806428Y-57798142D01*
X119806428Y-57798142D02*
X119869285Y-57860999D01*
X119869285Y-57860999D02*
X119995000Y-57923856D01*
X119995000Y-57923856D02*
X120246428Y-57923856D01*
X120246428Y-57923856D02*
X120372142Y-57860999D01*
X120372142Y-57860999D02*
X120435000Y-57798142D01*
X120435000Y-57798142D02*
X120497857Y-57672427D01*
X120497857Y-57672427D02*
X120497857Y-57420999D01*
X120497857Y-57420999D02*
X120435000Y-57295285D01*
X120435000Y-57295285D02*
X120372142Y-57232427D01*
X120372142Y-57232427D02*
X120246428Y-57169570D01*
X120246428Y-57169570D02*
X119995000Y-57169570D01*
X119995000Y-57169570D02*
X119869285Y-57232427D01*
X119869285Y-57232427D02*
X119806428Y-57295285D01*
X119806428Y-57295285D02*
X119743571Y-57420999D01*
X119177857Y-56038142D02*
X119177857Y-56289570D01*
X119177857Y-56289570D02*
X119240714Y-56415284D01*
X119240714Y-56415284D02*
X119303571Y-56478142D01*
X119303571Y-56478142D02*
X119492142Y-56603856D01*
X119492142Y-56603856D02*
X119743571Y-56666713D01*
X119743571Y-56666713D02*
X120246428Y-56666713D01*
X120246428Y-56666713D02*
X120372142Y-56603856D01*
X120372142Y-56603856D02*
X120435000Y-56540999D01*
X120435000Y-56540999D02*
X120497857Y-56415284D01*
X120497857Y-56415284D02*
X120497857Y-56163856D01*
X120497857Y-56163856D02*
X120435000Y-56038142D01*
X120435000Y-56038142D02*
X120372142Y-55975284D01*
X120372142Y-55975284D02*
X120246428Y-55912427D01*
X120246428Y-55912427D02*
X119932142Y-55912427D01*
X119932142Y-55912427D02*
X119806428Y-55975284D01*
X119806428Y-55975284D02*
X119743571Y-56038142D01*
X119743571Y-56038142D02*
X119680714Y-56163856D01*
X119680714Y-56163856D02*
X119680714Y-56415284D01*
X119680714Y-56415284D02*
X119743571Y-56540999D01*
X119743571Y-56540999D02*
X119806428Y-56603856D01*
X119806428Y-56603856D02*
X119932142Y-56666713D01*
X133336666Y-36354819D02*
X133336666Y-37069104D01*
X133336666Y-37069104D02*
X133289047Y-37211961D01*
X133289047Y-37211961D02*
X133193809Y-37307200D01*
X133193809Y-37307200D02*
X133050952Y-37354819D01*
X133050952Y-37354819D02*
X132955714Y-37354819D01*
X133717619Y-36354819D02*
X134336666Y-36354819D01*
X134336666Y-36354819D02*
X134003333Y-36735771D01*
X134003333Y-36735771D02*
X134146190Y-36735771D01*
X134146190Y-36735771D02*
X134241428Y-36783390D01*
X134241428Y-36783390D02*
X134289047Y-36831009D01*
X134289047Y-36831009D02*
X134336666Y-36926247D01*
X134336666Y-36926247D02*
X134336666Y-37164342D01*
X134336666Y-37164342D02*
X134289047Y-37259580D01*
X134289047Y-37259580D02*
X134241428Y-37307200D01*
X134241428Y-37307200D02*
X134146190Y-37354819D01*
X134146190Y-37354819D02*
X133860476Y-37354819D01*
X133860476Y-37354819D02*
X133765238Y-37307200D01*
X133765238Y-37307200D02*
X133717619Y-37259580D01*
X143061666Y-36404819D02*
X143061666Y-37119104D01*
X143061666Y-37119104D02*
X143014047Y-37261961D01*
X143014047Y-37261961D02*
X142918809Y-37357200D01*
X142918809Y-37357200D02*
X142775952Y-37404819D01*
X142775952Y-37404819D02*
X142680714Y-37404819D01*
X144061666Y-37404819D02*
X143490238Y-37404819D01*
X143775952Y-37404819D02*
X143775952Y-36404819D01*
X143775952Y-36404819D02*
X143680714Y-36547676D01*
X143680714Y-36547676D02*
X143585476Y-36642914D01*
X143585476Y-36642914D02*
X143490238Y-36690533D01*
D12*
X164176941Y-54982453D02*
X164191214Y-54996725D01*
X164191214Y-54996725D02*
X164205486Y-55039543D01*
X164205486Y-55039543D02*
X164205486Y-55068087D01*
X164205486Y-55068087D02*
X164191214Y-55110904D01*
X164191214Y-55110904D02*
X164162669Y-55139449D01*
X164162669Y-55139449D02*
X164134124Y-55153722D01*
X164134124Y-55153722D02*
X164077034Y-55167994D01*
X164077034Y-55167994D02*
X164034217Y-55167994D01*
X164034217Y-55167994D02*
X163977128Y-55153722D01*
X163977128Y-55153722D02*
X163948583Y-55139449D01*
X163948583Y-55139449D02*
X163920038Y-55110904D01*
X163920038Y-55110904D02*
X163905766Y-55068087D01*
X163905766Y-55068087D02*
X163905766Y-55039543D01*
X163905766Y-55039543D02*
X163920038Y-54996725D01*
X163920038Y-54996725D02*
X163934311Y-54982453D01*
X164205486Y-54697005D02*
X164205486Y-54868274D01*
X164205486Y-54782640D02*
X163905766Y-54782640D01*
X163905766Y-54782640D02*
X163948583Y-54811184D01*
X163948583Y-54811184D02*
X163977128Y-54839729D01*
X163977128Y-54839729D02*
X163991400Y-54868274D01*
X134146941Y-59584953D02*
X134161214Y-59599225D01*
X134161214Y-59599225D02*
X134175486Y-59642043D01*
X134175486Y-59642043D02*
X134175486Y-59670587D01*
X134175486Y-59670587D02*
X134161214Y-59713404D01*
X134161214Y-59713404D02*
X134132669Y-59741949D01*
X134132669Y-59741949D02*
X134104124Y-59756222D01*
X134104124Y-59756222D02*
X134047034Y-59770494D01*
X134047034Y-59770494D02*
X134004217Y-59770494D01*
X134004217Y-59770494D02*
X133947128Y-59756222D01*
X133947128Y-59756222D02*
X133918583Y-59741949D01*
X133918583Y-59741949D02*
X133890038Y-59713404D01*
X133890038Y-59713404D02*
X133875766Y-59670587D01*
X133875766Y-59670587D02*
X133875766Y-59642043D01*
X133875766Y-59642043D02*
X133890038Y-59599225D01*
X133890038Y-59599225D02*
X133904311Y-59584953D01*
X133875766Y-59328050D02*
X133875766Y-59385140D01*
X133875766Y-59385140D02*
X133890038Y-59413684D01*
X133890038Y-59413684D02*
X133904311Y-59427957D01*
X133904311Y-59427957D02*
X133947128Y-59456502D01*
X133947128Y-59456502D02*
X134004217Y-59470774D01*
X134004217Y-59470774D02*
X134118396Y-59470774D01*
X134118396Y-59470774D02*
X134146941Y-59456502D01*
X134146941Y-59456502D02*
X134161214Y-59442229D01*
X134161214Y-59442229D02*
X134175486Y-59413684D01*
X134175486Y-59413684D02*
X134175486Y-59356595D01*
X134175486Y-59356595D02*
X134161214Y-59328050D01*
X134161214Y-59328050D02*
X134146941Y-59313778D01*
X134146941Y-59313778D02*
X134118396Y-59299505D01*
X134118396Y-59299505D02*
X134047034Y-59299505D01*
X134047034Y-59299505D02*
X134018490Y-59313778D01*
X134018490Y-59313778D02*
X134004217Y-59328050D01*
X134004217Y-59328050D02*
X133989945Y-59356595D01*
X133989945Y-59356595D02*
X133989945Y-59413684D01*
X133989945Y-59413684D02*
X134004217Y-59442229D01*
X134004217Y-59442229D02*
X134018490Y-59456502D01*
X134018490Y-59456502D02*
X134047034Y-59470774D01*
D10*
X169604819Y-47933333D02*
X170319104Y-47933333D01*
X170319104Y-47933333D02*
X170461961Y-47980952D01*
X170461961Y-47980952D02*
X170557200Y-48076190D01*
X170557200Y-48076190D02*
X170604819Y-48219047D01*
X170604819Y-48219047D02*
X170604819Y-48314285D01*
X169604819Y-47552380D02*
X169604819Y-46885714D01*
X169604819Y-46885714D02*
X170604819Y-47314285D01*
X172236666Y-36404819D02*
X172236666Y-37119104D01*
X172236666Y-37119104D02*
X172189047Y-37261961D01*
X172189047Y-37261961D02*
X172093809Y-37357200D01*
X172093809Y-37357200D02*
X171950952Y-37404819D01*
X171950952Y-37404819D02*
X171855714Y-37404819D01*
X172855714Y-36833390D02*
X172760476Y-36785771D01*
X172760476Y-36785771D02*
X172712857Y-36738152D01*
X172712857Y-36738152D02*
X172665238Y-36642914D01*
X172665238Y-36642914D02*
X172665238Y-36595295D01*
X172665238Y-36595295D02*
X172712857Y-36500057D01*
X172712857Y-36500057D02*
X172760476Y-36452438D01*
X172760476Y-36452438D02*
X172855714Y-36404819D01*
X172855714Y-36404819D02*
X173046190Y-36404819D01*
X173046190Y-36404819D02*
X173141428Y-36452438D01*
X173141428Y-36452438D02*
X173189047Y-36500057D01*
X173189047Y-36500057D02*
X173236666Y-36595295D01*
X173236666Y-36595295D02*
X173236666Y-36642914D01*
X173236666Y-36642914D02*
X173189047Y-36738152D01*
X173189047Y-36738152D02*
X173141428Y-36785771D01*
X173141428Y-36785771D02*
X173046190Y-36833390D01*
X173046190Y-36833390D02*
X172855714Y-36833390D01*
X172855714Y-36833390D02*
X172760476Y-36881009D01*
X172760476Y-36881009D02*
X172712857Y-36928628D01*
X172712857Y-36928628D02*
X172665238Y-37023866D01*
X172665238Y-37023866D02*
X172665238Y-37214342D01*
X172665238Y-37214342D02*
X172712857Y-37309580D01*
X172712857Y-37309580D02*
X172760476Y-37357200D01*
X172760476Y-37357200D02*
X172855714Y-37404819D01*
X172855714Y-37404819D02*
X173046190Y-37404819D01*
X173046190Y-37404819D02*
X173141428Y-37357200D01*
X173141428Y-37357200D02*
X173189047Y-37309580D01*
X173189047Y-37309580D02*
X173236666Y-37214342D01*
X173236666Y-37214342D02*
X173236666Y-37023866D01*
X173236666Y-37023866D02*
X173189047Y-36928628D01*
X173189047Y-36928628D02*
X173141428Y-36881009D01*
X173141428Y-36881009D02*
X173046190Y-36833390D01*
X140875476Y-63354819D02*
X140875476Y-64069104D01*
X140875476Y-64069104D02*
X140827857Y-64211961D01*
X140827857Y-64211961D02*
X140732619Y-64307200D01*
X140732619Y-64307200D02*
X140589762Y-64354819D01*
X140589762Y-64354819D02*
X140494524Y-64354819D01*
X141875476Y-64354819D02*
X141304048Y-64354819D01*
X141589762Y-64354819D02*
X141589762Y-63354819D01*
X141589762Y-63354819D02*
X141494524Y-63497676D01*
X141494524Y-63497676D02*
X141399286Y-63592914D01*
X141399286Y-63592914D02*
X141304048Y-63640533D01*
X142827857Y-64354819D02*
X142256429Y-64354819D01*
X142542143Y-64354819D02*
X142542143Y-63354819D01*
X142542143Y-63354819D02*
X142446905Y-63497676D01*
X142446905Y-63497676D02*
X142351667Y-63592914D01*
X142351667Y-63592914D02*
X142256429Y-63640533D01*
X131833333Y-63289580D02*
X131785714Y-63337200D01*
X131785714Y-63337200D02*
X131642857Y-63384819D01*
X131642857Y-63384819D02*
X131547619Y-63384819D01*
X131547619Y-63384819D02*
X131404762Y-63337200D01*
X131404762Y-63337200D02*
X131309524Y-63241961D01*
X131309524Y-63241961D02*
X131261905Y-63146723D01*
X131261905Y-63146723D02*
X131214286Y-62956247D01*
X131214286Y-62956247D02*
X131214286Y-62813390D01*
X131214286Y-62813390D02*
X131261905Y-62622914D01*
X131261905Y-62622914D02*
X131309524Y-62527676D01*
X131309524Y-62527676D02*
X131404762Y-62432438D01*
X131404762Y-62432438D02*
X131547619Y-62384819D01*
X131547619Y-62384819D02*
X131642857Y-62384819D01*
X131642857Y-62384819D02*
X131785714Y-62432438D01*
X131785714Y-62432438D02*
X131833333Y-62480057D01*
X132738095Y-62384819D02*
X132261905Y-62384819D01*
X132261905Y-62384819D02*
X132214286Y-62861009D01*
X132214286Y-62861009D02*
X132261905Y-62813390D01*
X132261905Y-62813390D02*
X132357143Y-62765771D01*
X132357143Y-62765771D02*
X132595238Y-62765771D01*
X132595238Y-62765771D02*
X132690476Y-62813390D01*
X132690476Y-62813390D02*
X132738095Y-62861009D01*
X132738095Y-62861009D02*
X132785714Y-62956247D01*
X132785714Y-62956247D02*
X132785714Y-63194342D01*
X132785714Y-63194342D02*
X132738095Y-63289580D01*
X132738095Y-63289580D02*
X132690476Y-63337200D01*
X132690476Y-63337200D02*
X132595238Y-63384819D01*
X132595238Y-63384819D02*
X132357143Y-63384819D01*
X132357143Y-63384819D02*
X132261905Y-63337200D01*
X132261905Y-63337200D02*
X132214286Y-63289580D01*
X149269065Y-68308925D02*
X149906486Y-68308925D01*
X149906486Y-68308925D02*
X149981476Y-68271430D01*
X149981476Y-68271430D02*
X150018972Y-68233934D01*
X150018972Y-68233934D02*
X150056467Y-68158944D01*
X150056467Y-68158944D02*
X150056467Y-68008962D01*
X150056467Y-68008962D02*
X150018972Y-67933972D01*
X150018972Y-67933972D02*
X149981476Y-67896476D01*
X149981476Y-67896476D02*
X149906486Y-67858981D01*
X149906486Y-67858981D02*
X149269065Y-67858981D01*
X149344056Y-67521523D02*
X149306560Y-67484028D01*
X149306560Y-67484028D02*
X149269065Y-67409037D01*
X149269065Y-67409037D02*
X149269065Y-67221561D01*
X149269065Y-67221561D02*
X149306560Y-67146570D01*
X149306560Y-67146570D02*
X149344056Y-67109075D01*
X149344056Y-67109075D02*
X149419046Y-67071579D01*
X149419046Y-67071579D02*
X149494037Y-67071579D01*
X149494037Y-67071579D02*
X149606523Y-67109075D01*
X149606523Y-67109075D02*
X150056467Y-67559019D01*
X150056467Y-67559019D02*
X150056467Y-67071579D01*
X151522857Y-62778999D02*
X151522857Y-62024714D01*
X152842857Y-62401856D02*
X151522857Y-62401856D01*
X152465714Y-61647571D02*
X152465714Y-61019000D01*
X152842857Y-61773285D02*
X151522857Y-61333285D01*
X151522857Y-61333285D02*
X152842857Y-60893285D01*
X151522857Y-59887571D02*
X151522857Y-60138999D01*
X151522857Y-60138999D02*
X151585714Y-60264713D01*
X151585714Y-60264713D02*
X151648571Y-60327571D01*
X151648571Y-60327571D02*
X151837142Y-60453285D01*
X151837142Y-60453285D02*
X152088571Y-60516142D01*
X152088571Y-60516142D02*
X152591428Y-60516142D01*
X152591428Y-60516142D02*
X152717142Y-60453285D01*
X152717142Y-60453285D02*
X152780000Y-60390428D01*
X152780000Y-60390428D02*
X152842857Y-60264713D01*
X152842857Y-60264713D02*
X152842857Y-60013285D01*
X152842857Y-60013285D02*
X152780000Y-59887571D01*
X152780000Y-59887571D02*
X152717142Y-59824713D01*
X152717142Y-59824713D02*
X152591428Y-59761856D01*
X152591428Y-59761856D02*
X152277142Y-59761856D01*
X152277142Y-59761856D02*
X152151428Y-59824713D01*
X152151428Y-59824713D02*
X152088571Y-59887571D01*
X152088571Y-59887571D02*
X152025714Y-60013285D01*
X152025714Y-60013285D02*
X152025714Y-60264713D01*
X152025714Y-60264713D02*
X152088571Y-60390428D01*
X152088571Y-60390428D02*
X152151428Y-60453285D01*
X152151428Y-60453285D02*
X152277142Y-60516142D01*
X151522857Y-58567570D02*
X151522857Y-59196142D01*
X151522857Y-59196142D02*
X152151428Y-59258999D01*
X152151428Y-59258999D02*
X152088571Y-59196142D01*
X152088571Y-59196142D02*
X152025714Y-59070428D01*
X152025714Y-59070428D02*
X152025714Y-58756142D01*
X152025714Y-58756142D02*
X152088571Y-58630428D01*
X152088571Y-58630428D02*
X152151428Y-58567570D01*
X152151428Y-58567570D02*
X152277142Y-58504713D01*
X152277142Y-58504713D02*
X152591428Y-58504713D01*
X152591428Y-58504713D02*
X152717142Y-58567570D01*
X152717142Y-58567570D02*
X152780000Y-58630428D01*
X152780000Y-58630428D02*
X152842857Y-58756142D01*
X152842857Y-58756142D02*
X152842857Y-59070428D01*
X152842857Y-59070428D02*
X152780000Y-59196142D01*
X152780000Y-59196142D02*
X152717142Y-59258999D01*
X152088571Y-57750427D02*
X152025714Y-57876142D01*
X152025714Y-57876142D02*
X151962857Y-57938999D01*
X151962857Y-57938999D02*
X151837142Y-58001856D01*
X151837142Y-58001856D02*
X151774285Y-58001856D01*
X151774285Y-58001856D02*
X151648571Y-57938999D01*
X151648571Y-57938999D02*
X151585714Y-57876142D01*
X151585714Y-57876142D02*
X151522857Y-57750427D01*
X151522857Y-57750427D02*
X151522857Y-57498999D01*
X151522857Y-57498999D02*
X151585714Y-57373285D01*
X151585714Y-57373285D02*
X151648571Y-57310427D01*
X151648571Y-57310427D02*
X151774285Y-57247570D01*
X151774285Y-57247570D02*
X151837142Y-57247570D01*
X151837142Y-57247570D02*
X151962857Y-57310427D01*
X151962857Y-57310427D02*
X152025714Y-57373285D01*
X152025714Y-57373285D02*
X152088571Y-57498999D01*
X152088571Y-57498999D02*
X152088571Y-57750427D01*
X152088571Y-57750427D02*
X152151428Y-57876142D01*
X152151428Y-57876142D02*
X152214285Y-57938999D01*
X152214285Y-57938999D02*
X152340000Y-58001856D01*
X152340000Y-58001856D02*
X152591428Y-58001856D01*
X152591428Y-58001856D02*
X152717142Y-57938999D01*
X152717142Y-57938999D02*
X152780000Y-57876142D01*
X152780000Y-57876142D02*
X152842857Y-57750427D01*
X152842857Y-57750427D02*
X152842857Y-57498999D01*
X152842857Y-57498999D02*
X152780000Y-57373285D01*
X152780000Y-57373285D02*
X152717142Y-57310427D01*
X152717142Y-57310427D02*
X152591428Y-57247570D01*
X152591428Y-57247570D02*
X152340000Y-57247570D01*
X152340000Y-57247570D02*
X152214285Y-57310427D01*
X152214285Y-57310427D02*
X152151428Y-57373285D01*
X152151428Y-57373285D02*
X152088571Y-57498999D01*
X151522857Y-56116142D02*
X151522857Y-56367570D01*
X151522857Y-56367570D02*
X151585714Y-56493284D01*
X151585714Y-56493284D02*
X151648571Y-56556142D01*
X151648571Y-56556142D02*
X151837142Y-56681856D01*
X151837142Y-56681856D02*
X152088571Y-56744713D01*
X152088571Y-56744713D02*
X152591428Y-56744713D01*
X152591428Y-56744713D02*
X152717142Y-56681856D01*
X152717142Y-56681856D02*
X152780000Y-56618999D01*
X152780000Y-56618999D02*
X152842857Y-56493284D01*
X152842857Y-56493284D02*
X152842857Y-56241856D01*
X152842857Y-56241856D02*
X152780000Y-56116142D01*
X152780000Y-56116142D02*
X152717142Y-56053284D01*
X152717142Y-56053284D02*
X152591428Y-55990427D01*
X152591428Y-55990427D02*
X152277142Y-55990427D01*
X152277142Y-55990427D02*
X152151428Y-56053284D01*
X152151428Y-56053284D02*
X152088571Y-56116142D01*
X152088571Y-56116142D02*
X152025714Y-56241856D01*
X152025714Y-56241856D02*
X152025714Y-56493284D01*
X152025714Y-56493284D02*
X152088571Y-56618999D01*
X152088571Y-56618999D02*
X152151428Y-56681856D01*
X152151428Y-56681856D02*
X152277142Y-56744713D01*
D13*
%TO.C,J12*%
X170020000Y-48205000D02*
X176760000Y-48205000D01*
X170020000Y-54025000D02*
X170020000Y-48205000D01*
X170020000Y-54025000D02*
X176760000Y-54025000D01*
X171739000Y-54025000D02*
X171739000Y-48205000D01*
X174840000Y-54025000D02*
X174840000Y-48205000D01*
X175840000Y-54025000D02*
X175840000Y-48205000D01*
X175960000Y-54265000D02*
X177000000Y-54265000D01*
X176760000Y-54025000D02*
X176760000Y-48205000D01*
X177000000Y-54265000D02*
X177000000Y-53465000D01*
D10*
%TO.C,U1*%
X157600000Y-59860000D02*
X157600000Y-69210000D01*
X159900000Y-59835000D02*
X159900000Y-56735000D01*
X160700000Y-56735000D02*
X160700000Y-59835000D01*
X161950000Y-58110000D02*
X161950000Y-59835000D01*
X163650000Y-58110000D02*
X161950000Y-58110000D01*
X163650000Y-59785000D02*
X163650000Y-58110000D01*
X164900000Y-56735000D02*
X164900000Y-59835000D01*
X165700000Y-56735000D02*
X165700000Y-59835000D01*
X168000000Y-59860000D02*
X157600000Y-59860000D01*
X168000000Y-69210000D02*
X168000000Y-59860000D01*
D13*
%TO.C,C3*%
X122740000Y-52140000D02*
X126490000Y-52140000D01*
X122740000Y-61595563D02*
X122740000Y-52140000D01*
X123804437Y-62660000D02*
X122740000Y-61595563D01*
X123804437Y-62660000D02*
X126490000Y-62660000D01*
X124615000Y-63525000D02*
X125865000Y-63525000D01*
X125240000Y-64150000D02*
X125240000Y-62900000D01*
X132195563Y-62660000D02*
X129510000Y-62660000D01*
X132195563Y-62660000D02*
X133260000Y-61595563D01*
X133260000Y-52140000D02*
X129510000Y-52140000D01*
X133260000Y-61595563D02*
X133260000Y-52140000D01*
%TO.C,J4*%
X148760000Y-37740000D02*
X148760000Y-38990000D01*
X149060000Y-38040000D02*
X149060000Y-42760000D01*
X149060000Y-39350000D02*
X149670000Y-39350000D01*
X149060000Y-40650000D02*
X149670000Y-40650000D01*
X149060000Y-42760000D02*
X157180000Y-42760000D01*
X149670000Y-38650000D02*
X149670000Y-42150000D01*
X149670000Y-42150000D02*
X156570000Y-42150000D01*
X150010000Y-37740000D02*
X148760000Y-37740000D01*
X150520000Y-37840000D02*
X150520000Y-38040000D01*
X150820000Y-37840000D02*
X150520000Y-37840000D01*
X150820000Y-37940000D02*
X150520000Y-37940000D01*
X150820000Y-38040000D02*
X150820000Y-37840000D01*
X151620000Y-38040000D02*
X151620000Y-38650000D01*
X151620000Y-38650000D02*
X149670000Y-38650000D01*
X152020000Y-41650000D02*
X152220000Y-41650000D01*
X152020000Y-42150000D02*
X152020000Y-41650000D01*
X152120000Y-42150000D02*
X152120000Y-41650000D01*
X152220000Y-41650000D02*
X152220000Y-42150000D01*
X154020000Y-41650000D02*
X154220000Y-41650000D01*
X154020000Y-42150000D02*
X154020000Y-41650000D01*
X154120000Y-42150000D02*
X154120000Y-41650000D01*
X154220000Y-41650000D02*
X154220000Y-42150000D01*
X154620000Y-38650000D02*
X154620000Y-38040000D01*
X156570000Y-38650000D02*
X154620000Y-38650000D01*
X156570000Y-42150000D02*
X156570000Y-38650000D01*
X157180000Y-38040000D02*
X149060000Y-38040000D01*
X157180000Y-39350000D02*
X156570000Y-39350000D01*
X157180000Y-40650000D02*
X156570000Y-40650000D01*
X157180000Y-42760000D02*
X157180000Y-38040000D01*
D14*
%TO.C,R3*%
X142424470Y-43612500D02*
X144075470Y-43612500D01*
X142424470Y-44692000D02*
X142424470Y-43612500D01*
X142424470Y-46724000D02*
X142424470Y-45708000D01*
X144075470Y-43612500D02*
X144075470Y-44692000D01*
X144075470Y-45708000D02*
X144075470Y-46724000D01*
X144075470Y-46724000D02*
X142424470Y-46724000D01*
D13*
%TO.C,J2*%
X133690000Y-43740000D02*
X133690000Y-51860000D01*
X133690000Y-51860000D02*
X138410000Y-51860000D01*
X134300000Y-44350000D02*
X134300000Y-51250000D01*
X134300000Y-46700000D02*
X134800000Y-46700000D01*
X134300000Y-46800000D02*
X134800000Y-46800000D01*
X134300000Y-48700000D02*
X134800000Y-48700000D01*
X134300000Y-48800000D02*
X134800000Y-48800000D01*
X134300000Y-51250000D02*
X137800000Y-51250000D01*
X134800000Y-46700000D02*
X134800000Y-46900000D01*
X134800000Y-46900000D02*
X134300000Y-46900000D01*
X134800000Y-48700000D02*
X134800000Y-48900000D01*
X134800000Y-48900000D02*
X134300000Y-48900000D01*
X135800000Y-43740000D02*
X135800000Y-44350000D01*
X135800000Y-51860000D02*
X135800000Y-51250000D01*
X137100000Y-43740000D02*
X137100000Y-44350000D01*
X137100000Y-51860000D02*
X137100000Y-51250000D01*
X137800000Y-44350000D02*
X134300000Y-44350000D01*
X137800000Y-46300000D02*
X137800000Y-44350000D01*
X137800000Y-49300000D02*
X138410000Y-49300000D01*
X137800000Y-51250000D02*
X137800000Y-49300000D01*
X138410000Y-43740000D02*
X133690000Y-43740000D01*
X138410000Y-45500000D02*
X138610000Y-45500000D01*
X138410000Y-46300000D02*
X137800000Y-46300000D01*
X138410000Y-51860000D02*
X138410000Y-43740000D01*
X138510000Y-45500000D02*
X138510000Y-45200000D01*
X138610000Y-45200000D02*
X138410000Y-45200000D01*
X138610000Y-45500000D02*
X138610000Y-45200000D01*
X138710000Y-43440000D02*
X137460000Y-43440000D01*
X138710000Y-44690000D02*
X138710000Y-43440000D01*
D15*
%TO.C,hole_3mm*%
X143980000Y-68680000D02*
X149980000Y-68680000D01*
X146980000Y-65680000D02*
X146980000Y-71680000D01*
X149980000Y-68680000D02*
G75*
G02*
X143980000Y-68680000I-3000000J0D01*
G01*
X143980000Y-68680000D02*
G75*
G02*
X149980000Y-68680000I3000000J0D01*
G01*
X125200000Y-35200000D02*
X131200000Y-35200000D01*
X128200000Y-32200000D02*
X128200000Y-38200000D01*
X131200000Y-35200000D02*
G75*
G02*
X125200000Y-35200000I-3000000J0D01*
G01*
X125200000Y-35200000D02*
G75*
G02*
X131200000Y-35200000I3000000J0D01*
G01*
D13*
%TO.C,J10*%
X149090000Y-70846250D02*
X149090000Y-71886250D01*
X149090000Y-71886250D02*
X149890000Y-71886250D01*
X149330000Y-64906250D02*
X149330000Y-71646250D01*
X149330000Y-64906250D02*
X155150000Y-64906250D01*
X149330000Y-66625250D02*
X155150000Y-66625250D01*
X149330000Y-69726250D02*
X155150000Y-69726250D01*
X149330000Y-70726250D02*
X155150000Y-70726250D01*
X149330000Y-71646250D02*
X155150000Y-71646250D01*
X155150000Y-64906250D02*
X155150000Y-71646250D01*
%TO.C,J6*%
X158485000Y-37740000D02*
X158485000Y-38990000D01*
X158785000Y-38040000D02*
X158785000Y-42760000D01*
X158785000Y-39350000D02*
X159395000Y-39350000D01*
X158785000Y-40650000D02*
X159395000Y-40650000D01*
X158785000Y-42760000D02*
X166905000Y-42760000D01*
X159395000Y-38650000D02*
X159395000Y-42150000D01*
X159395000Y-42150000D02*
X166295000Y-42150000D01*
X159735000Y-37740000D02*
X158485000Y-37740000D01*
X160245000Y-37840000D02*
X160245000Y-38040000D01*
X160545000Y-37840000D02*
X160245000Y-37840000D01*
X160545000Y-37940000D02*
X160245000Y-37940000D01*
X160545000Y-38040000D02*
X160545000Y-37840000D01*
X161345000Y-38040000D02*
X161345000Y-38650000D01*
X161345000Y-38650000D02*
X159395000Y-38650000D01*
X161745000Y-41650000D02*
X161945000Y-41650000D01*
X161745000Y-42150000D02*
X161745000Y-41650000D01*
X161845000Y-42150000D02*
X161845000Y-41650000D01*
X161945000Y-41650000D02*
X161945000Y-42150000D01*
X163745000Y-41650000D02*
X163945000Y-41650000D01*
X163745000Y-42150000D02*
X163745000Y-41650000D01*
X163845000Y-42150000D02*
X163845000Y-41650000D01*
X163945000Y-41650000D02*
X163945000Y-42150000D01*
X164345000Y-38650000D02*
X164345000Y-38040000D01*
X166295000Y-38650000D02*
X164345000Y-38650000D01*
X166295000Y-42150000D02*
X166295000Y-38650000D01*
X166905000Y-38040000D02*
X158785000Y-38040000D01*
X166905000Y-39350000D02*
X166295000Y-39350000D01*
X166905000Y-40650000D02*
X166295000Y-40650000D01*
X166905000Y-42760000D02*
X166905000Y-38040000D01*
D16*
%TO.C,U3*%
X139495000Y-33620000D02*
X162195000Y-33620000D01*
X139495000Y-51620000D02*
X139495000Y-33620000D01*
X139495000Y-51620000D02*
X162195000Y-51620000D01*
X162195000Y-38120000D02*
X162195000Y-33620000D01*
X162195000Y-51620000D02*
X162195000Y-47120000D01*
X163495000Y-38120000D02*
X162195000Y-38120000D01*
X163495000Y-47120000D02*
X162195000Y-47120000D01*
X163495000Y-47120000D02*
X163495000Y-38120000D01*
D13*
%TO.C,J5*%
X149065000Y-43240000D02*
X149065000Y-47960000D01*
X149065000Y-45350000D02*
X149675000Y-45350000D01*
X149065000Y-46650000D02*
X149675000Y-46650000D01*
X149065000Y-47960000D02*
X157185000Y-47960000D01*
X149675000Y-43850000D02*
X149675000Y-47350000D01*
X149675000Y-47350000D02*
X151625000Y-47350000D01*
X151625000Y-47350000D02*
X151625000Y-47960000D01*
X152025000Y-44350000D02*
X152025000Y-43850000D01*
X152125000Y-43850000D02*
X152125000Y-44350000D01*
X152225000Y-43850000D02*
X152225000Y-44350000D01*
X152225000Y-44350000D02*
X152025000Y-44350000D01*
X154025000Y-44350000D02*
X154025000Y-43850000D01*
X154125000Y-43850000D02*
X154125000Y-44350000D01*
X154225000Y-43850000D02*
X154225000Y-44350000D01*
X154225000Y-44350000D02*
X154025000Y-44350000D01*
X154625000Y-47350000D02*
X156575000Y-47350000D01*
X154625000Y-47960000D02*
X154625000Y-47350000D01*
X155425000Y-47960000D02*
X155425000Y-48160000D01*
X155425000Y-48060000D02*
X155725000Y-48060000D01*
X155425000Y-48160000D02*
X155725000Y-48160000D01*
X155725000Y-48160000D02*
X155725000Y-47960000D01*
X156235000Y-48260000D02*
X157485000Y-48260000D01*
X156575000Y-43850000D02*
X149675000Y-43850000D01*
X156575000Y-47350000D02*
X156575000Y-43850000D01*
X157185000Y-43240000D02*
X149065000Y-43240000D01*
X157185000Y-45350000D02*
X156575000Y-45350000D01*
X157185000Y-46650000D02*
X156575000Y-46650000D01*
X157185000Y-47960000D02*
X157185000Y-43240000D01*
X157485000Y-48260000D02*
X157485000Y-47010000D01*
D15*
%TO.C,SW2*%
X129424140Y-44574440D02*
X133025860Y-44574440D01*
X129424140Y-50573920D02*
X129424140Y-44574440D01*
X129825460Y-44973220D02*
X132624540Y-44973220D01*
X129825460Y-50175140D02*
X129825460Y-44973220D01*
X129825460Y-50175140D02*
X130523960Y-48874660D01*
X130523960Y-46273700D02*
X129825460Y-44973220D01*
X130523960Y-46273700D02*
X131926040Y-46273700D01*
X130523960Y-48874660D02*
X130523960Y-46273700D01*
X131926040Y-46273700D02*
X131926040Y-48874660D01*
X131926040Y-46273700D02*
X132624540Y-44973220D01*
X131926040Y-48874660D02*
X130523960Y-48874660D01*
X131926040Y-48874660D02*
X132624540Y-50175140D01*
X132624540Y-44973220D02*
X132624540Y-50175140D01*
X132624540Y-50175140D02*
X129825460Y-50175140D01*
X133025860Y-44574440D02*
X133025860Y-50573920D01*
X133025860Y-50573920D02*
X129424140Y-50573920D01*
D14*
%TO.C,R2*%
X145174530Y-43676000D02*
X146825530Y-43676000D01*
X145174530Y-44692000D02*
X145174530Y-43676000D01*
X145174530Y-46787500D02*
X145174530Y-45708000D01*
X146825530Y-43676000D02*
X146825530Y-44692000D01*
X146825530Y-45708000D02*
X146825530Y-46787500D01*
X146825530Y-46787500D02*
X145174530Y-46787500D01*
%TO.C,R1*%
X127494500Y-43403500D02*
X129145500Y-43403500D01*
X127494500Y-44419500D02*
X127494500Y-43403500D01*
X127494500Y-46515000D02*
X127494500Y-45435500D01*
X129145500Y-43403500D02*
X129145500Y-44419500D01*
X129145500Y-45435500D02*
X129145500Y-46515000D01*
X129145500Y-46515000D02*
X127494500Y-46515000D01*
D10*
%TO.C,C4*%
X157460000Y-55630000D02*
X157460000Y-56630000D01*
D16*
X157460000Y-59630000D02*
X157460000Y-58630000D01*
D10*
X159460000Y-55630000D02*
X157460000Y-55630000D01*
X159460000Y-56630000D02*
X159460000Y-55630000D01*
D16*
X159460000Y-58630000D02*
X159460000Y-59630000D01*
X159460000Y-59630000D02*
X157460000Y-59630000D01*
D17*
%TO.C,U4*%
X136615000Y-55009000D02*
X136615000Y-62629000D01*
X146775000Y-55009000D02*
X146775000Y-57549000D01*
X146775000Y-60089000D02*
X146775000Y-62629000D01*
X145505000Y-58819000D02*
G75*
G02*
X146775000Y-57549000I1269999J1D01*
G01*
X146775000Y-60089000D02*
G75*
G02*
X145505000Y-58819000I-1J1269999D01*
G01*
D13*
%TO.C,J3*%
X129310000Y-37690000D02*
X129310000Y-38940000D01*
X129610000Y-37990000D02*
X129610000Y-42710000D01*
X129610000Y-39300000D02*
X130220000Y-39300000D01*
X129610000Y-40600000D02*
X130220000Y-40600000D01*
X129610000Y-42710000D02*
X137730000Y-42710000D01*
X130220000Y-38600000D02*
X130220000Y-42100000D01*
X130220000Y-42100000D02*
X137120000Y-42100000D01*
X130560000Y-37690000D02*
X129310000Y-37690000D01*
X131070000Y-37790000D02*
X131070000Y-37990000D01*
X131370000Y-37790000D02*
X131070000Y-37790000D01*
X131370000Y-37890000D02*
X131070000Y-37890000D01*
X131370000Y-37990000D02*
X131370000Y-37790000D01*
X132170000Y-37990000D02*
X132170000Y-38600000D01*
X132170000Y-38600000D02*
X130220000Y-38600000D01*
X132570000Y-41600000D02*
X132770000Y-41600000D01*
X132570000Y-42100000D02*
X132570000Y-41600000D01*
X132670000Y-42100000D02*
X132670000Y-41600000D01*
X132770000Y-41600000D02*
X132770000Y-42100000D01*
X134570000Y-41600000D02*
X134770000Y-41600000D01*
X134570000Y-42100000D02*
X134570000Y-41600000D01*
X134670000Y-42100000D02*
X134670000Y-41600000D01*
X134770000Y-41600000D02*
X134770000Y-42100000D01*
X135170000Y-38600000D02*
X135170000Y-37990000D01*
X137120000Y-38600000D02*
X135170000Y-38600000D01*
X137120000Y-42100000D02*
X137120000Y-38600000D01*
X137730000Y-37990000D02*
X129610000Y-37990000D01*
X137730000Y-39300000D02*
X137120000Y-39300000D01*
X137730000Y-40600000D02*
X137120000Y-40600000D01*
X137730000Y-42710000D02*
X137730000Y-37990000D01*
%TO.C,J1*%
X139035000Y-37740000D02*
X139035000Y-38990000D01*
X139335000Y-38040000D02*
X139335000Y-42760000D01*
X139335000Y-39350000D02*
X139945000Y-39350000D01*
X139335000Y-40650000D02*
X139945000Y-40650000D01*
X139335000Y-42760000D02*
X147455000Y-42760000D01*
X139945000Y-38650000D02*
X139945000Y-42150000D01*
X139945000Y-42150000D02*
X146845000Y-42150000D01*
X140285000Y-37740000D02*
X139035000Y-37740000D01*
X140795000Y-37840000D02*
X140795000Y-38040000D01*
X141095000Y-37840000D02*
X140795000Y-37840000D01*
X141095000Y-37940000D02*
X140795000Y-37940000D01*
X141095000Y-38040000D02*
X141095000Y-37840000D01*
X141895000Y-38040000D02*
X141895000Y-38650000D01*
X141895000Y-38650000D02*
X139945000Y-38650000D01*
X142295000Y-41650000D02*
X142495000Y-41650000D01*
X142295000Y-42150000D02*
X142295000Y-41650000D01*
X142395000Y-42150000D02*
X142395000Y-41650000D01*
X142495000Y-41650000D02*
X142495000Y-42150000D01*
X144295000Y-41650000D02*
X144495000Y-41650000D01*
X144295000Y-42150000D02*
X144295000Y-41650000D01*
X144395000Y-42150000D02*
X144395000Y-41650000D01*
X144495000Y-41650000D02*
X144495000Y-42150000D01*
X144895000Y-38650000D02*
X144895000Y-38040000D01*
X146845000Y-38650000D02*
X144895000Y-38650000D01*
X146845000Y-42150000D02*
X146845000Y-38650000D01*
X147455000Y-38040000D02*
X139335000Y-38040000D01*
X147455000Y-39350000D02*
X146845000Y-39350000D01*
X147455000Y-40650000D02*
X146845000Y-40650000D01*
X147455000Y-42760000D02*
X147455000Y-38040000D01*
D10*
%TO.C,C1*%
X161820000Y-52932500D02*
X161820000Y-53932500D01*
D16*
X161820000Y-56932500D02*
X161820000Y-55932500D01*
D10*
X163820000Y-52932500D02*
X161820000Y-52932500D01*
X163820000Y-53932500D02*
X163820000Y-52932500D01*
D16*
X163820000Y-55932500D02*
X163820000Y-56932500D01*
X163820000Y-56932500D02*
X161820000Y-56932500D01*
%TO.C,C6*%
X134290000Y-57535000D02*
X136290000Y-57535000D01*
X134290000Y-58535000D02*
X134290000Y-57535000D01*
D10*
X134290000Y-60535000D02*
X134290000Y-61535000D01*
X134290000Y-61535000D02*
X136290000Y-61535000D01*
D16*
X136290000Y-57535000D02*
X136290000Y-58535000D01*
D10*
X136290000Y-61535000D02*
X136290000Y-60535000D01*
D13*
%TO.C,J7*%
X164340000Y-43540000D02*
X164340000Y-51660000D01*
X164340000Y-51660000D02*
X169060000Y-51660000D01*
X164950000Y-44150000D02*
X164950000Y-51050000D01*
X164950000Y-46500000D02*
X165450000Y-46500000D01*
X164950000Y-46600000D02*
X165450000Y-46600000D01*
X164950000Y-48500000D02*
X165450000Y-48500000D01*
X164950000Y-48600000D02*
X165450000Y-48600000D01*
X164950000Y-51050000D02*
X168450000Y-51050000D01*
X165450000Y-46500000D02*
X165450000Y-46700000D01*
X165450000Y-46700000D02*
X164950000Y-46700000D01*
X165450000Y-48500000D02*
X165450000Y-48700000D01*
X165450000Y-48700000D02*
X164950000Y-48700000D01*
X166450000Y-43540000D02*
X166450000Y-44150000D01*
X166450000Y-51660000D02*
X166450000Y-51050000D01*
X167750000Y-43540000D02*
X167750000Y-44150000D01*
X167750000Y-51660000D02*
X167750000Y-51050000D01*
X168450000Y-44150000D02*
X164950000Y-44150000D01*
X168450000Y-46100000D02*
X168450000Y-44150000D01*
X168450000Y-49100000D02*
X169060000Y-49100000D01*
X168450000Y-51050000D02*
X168450000Y-49100000D01*
X169060000Y-43540000D02*
X164340000Y-43540000D01*
X169060000Y-45300000D02*
X169260000Y-45300000D01*
X169060000Y-46100000D02*
X168450000Y-46100000D01*
X169060000Y-51660000D02*
X169060000Y-43540000D01*
X169160000Y-45300000D02*
X169160000Y-45000000D01*
X169260000Y-45000000D02*
X169060000Y-45000000D01*
X169260000Y-45300000D02*
X169260000Y-45000000D01*
X169360000Y-43240000D02*
X168110000Y-43240000D01*
X169360000Y-44490000D02*
X169360000Y-43240000D01*
%TO.C,J8*%
X168210000Y-37740000D02*
X168210000Y-38990000D01*
X168510000Y-38040000D02*
X168510000Y-42760000D01*
X168510000Y-39350000D02*
X169120000Y-39350000D01*
X168510000Y-40650000D02*
X169120000Y-40650000D01*
X168510000Y-42760000D02*
X176630000Y-42760000D01*
X169120000Y-38650000D02*
X169120000Y-42150000D01*
X169120000Y-42150000D02*
X176020000Y-42150000D01*
X169460000Y-37740000D02*
X168210000Y-37740000D01*
X169970000Y-37840000D02*
X169970000Y-38040000D01*
X170270000Y-37840000D02*
X169970000Y-37840000D01*
X170270000Y-37940000D02*
X169970000Y-37940000D01*
X170270000Y-38040000D02*
X170270000Y-37840000D01*
X171070000Y-38040000D02*
X171070000Y-38650000D01*
X171070000Y-38650000D02*
X169120000Y-38650000D01*
X171470000Y-41650000D02*
X171670000Y-41650000D01*
X171470000Y-42150000D02*
X171470000Y-41650000D01*
X171570000Y-42150000D02*
X171570000Y-41650000D01*
X171670000Y-41650000D02*
X171670000Y-42150000D01*
X173470000Y-41650000D02*
X173670000Y-41650000D01*
X173470000Y-42150000D02*
X173470000Y-41650000D01*
X173570000Y-42150000D02*
X173570000Y-41650000D01*
X173670000Y-41650000D02*
X173670000Y-42150000D01*
X174070000Y-38650000D02*
X174070000Y-38040000D01*
X176020000Y-38650000D02*
X174070000Y-38650000D01*
X176020000Y-42150000D02*
X176020000Y-38650000D01*
X176630000Y-38040000D02*
X168510000Y-38040000D01*
X176630000Y-39350000D02*
X176020000Y-39350000D01*
X176630000Y-40650000D02*
X176020000Y-40650000D01*
X176630000Y-42760000D02*
X176630000Y-38040000D01*
%TO.C,J11*%
X138535000Y-70840000D02*
X138535000Y-71880000D01*
X138535000Y-71880000D02*
X139335000Y-71880000D01*
X138775000Y-64900000D02*
X138775000Y-71640000D01*
X138775000Y-64900000D02*
X144595000Y-64900000D01*
X138775000Y-66619000D02*
X144595000Y-66619000D01*
X138775000Y-69720000D02*
X144595000Y-69720000D01*
X138775000Y-70720000D02*
X144595000Y-70720000D01*
X138775000Y-71640000D02*
X144595000Y-71640000D01*
X144595000Y-64900000D02*
X144595000Y-71640000D01*
D10*
%TO.C,C2*%
X157307500Y-51810000D02*
X157307500Y-53810000D01*
X157307500Y-53810000D02*
X158307500Y-53810000D01*
X158307500Y-51810000D02*
X157307500Y-51810000D01*
D16*
X160307500Y-51810000D02*
X161307500Y-51810000D01*
X161307500Y-51810000D02*
X161307500Y-53810000D01*
X161307500Y-53810000D02*
X160307500Y-53810000D01*
D13*
%TO.C,C5*%
X125250000Y-66370000D02*
X126500000Y-66370000D01*
X125875000Y-65745000D02*
X125875000Y-66995000D01*
X126740000Y-64934437D02*
X126740000Y-67620000D01*
X126740000Y-64934437D02*
X127804437Y-63870000D01*
X126740000Y-73325563D02*
X126740000Y-70640000D01*
X126740000Y-73325563D02*
X127804437Y-74390000D01*
X127804437Y-63870000D02*
X137260000Y-63870000D01*
X127804437Y-74390000D02*
X137260000Y-74390000D01*
X137260000Y-63870000D02*
X137260000Y-67620000D01*
X137260000Y-74390000D02*
X137260000Y-70640000D01*
D15*
%TO.C,hole_3mm*%
X175200000Y-35600000D02*
X181200000Y-35600000D01*
X178200000Y-32600000D02*
X178200000Y-38600000D01*
X181200000Y-35600000D02*
G75*
G02*
X175200000Y-35600000I-3000000J0D01*
G01*
X175200000Y-35600000D02*
G75*
G02*
X181200000Y-35600000I3000000J0D01*
G01*
D17*
%TO.C,U2*%
X147160000Y-55009000D02*
X147160000Y-62629000D01*
X157320000Y-55009000D02*
X157320000Y-57549000D01*
X157320000Y-60089000D02*
X157320000Y-62629000D01*
X156050000Y-58819000D02*
G75*
G02*
X157320000Y-57549000I1269999J1D01*
G01*
X157320000Y-60089000D02*
G75*
G02*
X156050000Y-58819000I-1J1269999D01*
G01*
%TD*%
D18*
%TO.C,hole_3mm*%
X146980000Y-68680000D03*
%TD*%
%TO.C,hole_3mm*%
X128200000Y-35200000D03*
%TD*%
%TO.C,hole_3mm*%
X178200000Y-35600000D03*
%TD*%
M02*
