%TF.GenerationSoftware,KiCad,Pcbnew,8.0.3*%
%TF.CreationDate,2025-04-18T12:15:05-03:00*%
%TF.ProjectId,mini,6d696e69-2e6b-4696-9361-645f70636258,rev?*%
%TF.SameCoordinates,Original*%
%TF.FileFunction,Soldermask,Top*%
%TF.FilePolarity,Negative*%
%FSLAX46Y46*%
G04 Gerber Fmt 4.6, Leading zero omitted, Abs format (unit mm)*
G04 Created by KiCad (PCBNEW 8.0.3) date 2025-04-18 12:15:05*
%MOMM*%
%LPD*%
G01*
G04 APERTURE LIST*
G04 Aperture macros list*
%AMRoundRect*
0 Rectangle with rounded corners*
0 $1 Rounding radius*
0 $2 $3 $4 $5 $6 $7 $8 $9 X,Y pos of 4 corners*
0 Add a 4 corners polygon primitive as box body*
4,1,4,$2,$3,$4,$5,$6,$7,$8,$9,$2,$3,0*
0 Add four circle primitives for the rounded corners*
1,1,$1+$1,$2,$3*
1,1,$1+$1,$4,$5*
1,1,$1+$1,$6,$7*
1,1,$1+$1,$8,$9*
0 Add four rect primitives between the rounded corners*
20,1,$1+$1,$2,$3,$4,$5,0*
20,1,$1+$1,$4,$5,$6,$7,0*
20,1,$1+$1,$6,$7,$8,$9,0*
20,1,$1+$1,$8,$9,$2,$3,0*%
G04 Aperture macros list end*
%ADD10R,2.000000X2.000000*%
%ADD11C,2.000000*%
%ADD12RoundRect,0.050000X0.650000X1.850000X-0.650000X1.850000X-0.650000X-1.850000X0.650000X-1.850000X0*%
%ADD13RoundRect,0.050000X5.150000X4.450000X-5.150000X4.450000X-5.150000X-4.450000X5.150000X-4.450000X0*%
%ADD14RoundRect,0.250000X1.000000X-1.750000X1.000000X1.750000X-1.000000X1.750000X-1.000000X-1.750000X0*%
%ADD15RoundRect,0.250000X-0.350000X-0.625000X0.350000X-0.625000X0.350000X0.625000X-0.350000X0.625000X0*%
%ADD16O,1.200000X1.750000*%
%ADD17R,1.397000X0.889000*%
%ADD18RoundRect,0.250000X-0.625000X0.350000X-0.625000X-0.350000X0.625000X-0.350000X0.625000X0.350000X0*%
%ADD19O,1.750000X1.200000*%
%ADD20C,2.109000*%
%ADD21RoundRect,0.250000X0.350000X0.625000X-0.350000X0.625000X-0.350000X-0.625000X0.350000X-0.625000X0*%
%ADD22R,1.000760X1.000760*%
%ADD23R,1.498600X1.300480*%
%ADD24O,1.312000X2.420000*%
%ADD25R,1.300480X1.498600*%
%ADD26RoundRect,0.250000X-1.750000X-1.000000X1.750000X-1.000000X1.750000X1.000000X-1.750000X1.000000X0*%
%ADD27C,2.754000*%
%ADD28RoundRect,0.102000X1.275000X1.275000X-1.275000X1.275000X-1.275000X-1.275000X1.275000X-1.275000X0*%
%ADD29C,1.712000*%
G04 APERTURE END LIST*
D10*
%TO.C,J12*%
X173240000Y-52385000D03*
D11*
X173240000Y-49845000D03*
%TD*%
D12*
%TO.C,U1*%
X165340000Y-55885000D03*
D13*
X162800000Y-66435000D03*
D12*
X160260000Y-55885000D03*
%TD*%
D14*
%TO.C,C3*%
X128000000Y-61400000D03*
X128000000Y-53400000D03*
%TD*%
D15*
%TO.C,J4*%
X151120000Y-39850000D03*
D16*
X153120000Y-39850000D03*
X155120000Y-39850000D03*
%TD*%
D17*
%TO.C,R3*%
X143249970Y-46152500D03*
X143249970Y-44247500D03*
%TD*%
D18*
%TO.C,J2*%
X136600000Y-45800000D03*
D19*
X136600000Y-47800000D03*
X136600000Y-49800000D03*
%TD*%
D10*
%TO.C,J10*%
X150970000Y-68126250D03*
D11*
X153510000Y-68126250D03*
%TD*%
D15*
%TO.C,J6*%
X160845000Y-39850000D03*
D16*
X162845000Y-39850000D03*
X164845000Y-39850000D03*
%TD*%
D20*
%TO.C,U3*%
X142965000Y-50240000D03*
X145505000Y-50240000D03*
X148045000Y-50240000D03*
X150585000Y-50240000D03*
X155665000Y-50240000D03*
X153125000Y-50240000D03*
X160745000Y-35000000D03*
X160745000Y-50240000D03*
X158205000Y-35000000D03*
X155665000Y-35000000D03*
X153125000Y-35000000D03*
X150585000Y-35000000D03*
X148045000Y-35000000D03*
X145505000Y-35000000D03*
X142965000Y-35000000D03*
X158205000Y-50240000D03*
%TD*%
D21*
%TO.C,J5*%
X155125000Y-46150000D03*
D16*
X153125000Y-46150000D03*
X151125000Y-46150000D03*
%TD*%
D22*
%TO.C,SW2*%
X131225000Y-51173360D03*
X131225000Y-43975000D03*
%TD*%
D17*
%TO.C,R2*%
X146000030Y-44247500D03*
X146000030Y-46152500D03*
%TD*%
%TO.C,R1*%
X128320000Y-43975000D03*
X128320000Y-45880000D03*
%TD*%
D23*
%TO.C,C4*%
X158460000Y-58582500D03*
X158460000Y-56677500D03*
%TD*%
D24*
%TO.C,U4*%
X145505000Y-55009000D03*
X142965000Y-55009000D03*
X140425000Y-55009000D03*
X137885000Y-55009000D03*
X137885000Y-62629000D03*
X140425000Y-62629000D03*
X142965000Y-62629000D03*
X145505000Y-62629000D03*
%TD*%
D15*
%TO.C,J3*%
X131670000Y-39800000D03*
D16*
X133670000Y-39800000D03*
X135670000Y-39800000D03*
%TD*%
D15*
%TO.C,J1*%
X141395000Y-39850000D03*
D16*
X143395000Y-39850000D03*
X145395000Y-39850000D03*
%TD*%
D23*
%TO.C,C1*%
X162820000Y-55885000D03*
X162820000Y-53980000D03*
%TD*%
%TO.C,C6*%
X135290000Y-58582500D03*
X135290000Y-60487500D03*
%TD*%
D18*
%TO.C,J7*%
X167250000Y-45600000D03*
D19*
X167250000Y-47600000D03*
X167250000Y-49600000D03*
%TD*%
D15*
%TO.C,J8*%
X170570000Y-39850000D03*
D16*
X172570000Y-39850000D03*
X174570000Y-39850000D03*
%TD*%
D10*
%TO.C,J11*%
X140415000Y-68120000D03*
D11*
X142955000Y-68120000D03*
%TD*%
D25*
%TO.C,C2*%
X160260000Y-52810000D03*
X158355000Y-52810000D03*
%TD*%
D26*
%TO.C,C5*%
X128000000Y-69130000D03*
X136000000Y-69130000D03*
%TD*%
D24*
%TO.C,U2*%
X156050000Y-55009000D03*
X153510000Y-55009000D03*
X150970000Y-55009000D03*
X148430000Y-55009000D03*
X148430000Y-62629000D03*
X150970000Y-62629000D03*
X153510000Y-62629000D03*
X156050000Y-62629000D03*
%TD*%
D27*
%TO.C,J13*%
X170660000Y-68310000D03*
D28*
X175660000Y-68310000D03*
D29*
X167660000Y-58310000D03*
X178660000Y-58310000D03*
%TD*%
M02*
